<svg width="150" height="41" viewBox="0 0 150 41" fill="none" xmlns="http://www.w3.org/2000/svg">
<path d="M0.935606 40V1.21212H10.3106V32.3864H26.447V40H0.935606ZM66.3996 20.6061C66.3996 24.8737 65.5789 28.4912 63.9375 31.4583C62.2961 34.4255 60.0739 36.6793 57.2708 38.2197C54.4804 39.7601 51.3491 40.5303 47.8769 40.5303C44.392 40.5303 41.2544 39.7538 38.464 38.2008C35.6736 36.6477 33.4577 34.3939 31.8163 31.4394C30.1875 28.4722 29.3731 24.8611 29.3731 20.6061C29.3731 16.3384 30.1875 12.721 31.8163 9.75379C33.4577 6.78661 35.6736 4.53283 38.464 2.99242C41.2544 1.45202 44.392 0.681815 47.8769 0.681815C51.3491 0.681815 54.4804 1.45202 57.2708 2.99242C60.0739 4.53283 62.2961 6.78661 63.9375 9.75379C65.5789 12.721 66.3996 16.3384 66.3996 20.6061ZM56.8163 20.6061C56.8163 18.0808 56.4564 15.947 55.7367 14.2045C55.0297 12.4621 54.0069 11.1427 52.6686 10.2462C51.3428 9.34974 49.7456 8.90151 47.8769 8.90151C46.0208 8.90151 44.4236 9.34974 43.0852 10.2462C41.7468 11.1427 40.7178 12.4621 39.9981 14.2045C39.291 15.947 38.9375 18.0808 38.9375 20.6061C38.9375 23.1313 39.291 25.2651 39.9981 27.0076C40.7178 28.75 41.7468 30.0694 43.0852 30.9659C44.4236 31.8624 46.0208 32.3106 47.8769 32.3106C49.7456 32.3106 51.3428 31.8624 52.6686 30.9659C54.0069 30.0694 55.0297 28.75 55.7367 27.0076C56.4564 25.2651 56.8163 23.1313 56.8163 20.6061ZM97.3277 13.8826C97.113 13.0871 96.7974 12.3864 96.3807 11.7803C95.964 11.1616 95.4527 10.6376 94.8466 10.2083C94.2405 9.77904 93.5461 9.45707 92.7633 9.24242C91.9804 9.01515 91.1218 8.90151 90.1875 8.90151C88.3062 8.90151 86.6774 9.35606 85.3011 10.2651C83.9375 11.1742 82.8832 12.5 82.1383 14.2424C81.3933 15.9722 81.0208 18.0745 81.0208 20.5492C81.0208 23.0366 81.3807 25.1578 82.1004 26.9129C82.8201 28.6679 83.8617 30.0063 85.2254 30.928C86.589 31.8497 88.2431 32.3106 90.1875 32.3106C91.9047 32.3106 93.3567 32.0328 94.5436 31.4773C95.7431 30.9091 96.6521 30.1073 97.2708 29.072C97.8895 28.0366 98.1989 26.8182 98.1989 25.4167L99.9413 25.625H90.5095V18.7879H107.233V23.9205C107.233 27.3927 106.494 30.3662 105.017 32.8409C103.552 35.3157 101.532 37.2159 98.9564 38.5417C96.3933 39.8674 93.4451 40.5303 90.1117 40.5303C86.4122 40.5303 83.161 39.7285 80.358 38.125C77.5549 36.5215 75.3706 34.2361 73.8049 31.2689C72.2393 28.2891 71.4564 24.7538 71.4564 20.6629C71.4564 17.4811 71.9299 14.6591 72.8769 12.197C73.8239 9.72222 75.1433 7.62626 76.8352 5.90909C78.5398 4.19192 80.5095 2.89141 82.7443 2.00757C84.9918 1.12373 87.4097 0.681815 89.9981 0.681815C92.2456 0.681815 94.3352 1.00378 96.267 1.64772C98.2115 2.29166 99.9287 3.20076 101.419 4.375C102.921 5.54924 104.14 6.94444 105.074 8.56061C106.008 10.1768 106.589 11.9508 106.816 13.8826H97.3277ZM149.368 20.6061C149.368 24.8737 148.548 28.4912 146.906 31.4583C145.265 34.4255 143.043 36.6793 140.24 38.2197C137.449 39.7601 134.318 40.5303 130.846 40.5303C127.361 40.5303 124.223 39.7538 121.433 38.2008C118.642 36.6477 116.426 34.3939 114.785 31.4394C113.156 28.4722 112.342 24.8611 112.342 20.6061C112.342 16.3384 113.156 12.721 114.785 9.75379C116.426 6.78661 118.642 4.53283 121.433 2.99242C124.223 1.45202 127.361 0.681815 130.846 0.681815C134.318 0.681815 137.449 1.45202 140.24 2.99242C143.043 4.53283 145.265 6.78661 146.906 9.75379C148.548 12.721 149.368 16.3384 149.368 20.6061ZM139.785 20.6061C139.785 18.0808 139.425 15.947 138.705 14.2045C137.998 12.4621 136.976 11.1427 135.637 10.2462C134.312 9.34974 132.714 8.90151 130.846 8.90151C128.99 8.90151 127.392 9.34974 126.054 10.2462C124.716 11.1427 123.687 12.4621 122.967 14.2045C122.26 15.947 121.906 18.0808 121.906 20.6061C121.906 23.1313 122.26 25.2651 122.967 27.0076C123.687 28.75 124.716 30.0694 126.054 30.9659C127.392 31.8624 128.99 32.3106 130.846 32.3106C132.714 32.3106 134.312 31.8624 135.637 30.9659C136.976 30.0694 137.998 28.75 138.705 27.0076C139.425 25.2651 139.785 23.1313 139.785 20.6061Z" fill="white"/>
</svg>
